<svg xmlns="http://www.w3.org/2000/svg" viewBox="0 0 912.44 259.35"><defs><style>.a{fill:#fff;}.b{fill:red;}</style></defs><path class="a" d="M149.3,474v22.35H82.7v-2.1c5,0,7.35-8.55,7.35-13.35V406.94c0-4.8-2.4-13.34-7.35-13.34v-2.25h25v2.25c-4.65,0-7.2,8.54-7.2,13.34v70.95c0,9.45,5.1,14.55,19,14.55,27.15,0,27.15-11.7,27.15-18.45Z" transform="translate(-82.7 -316.65)"/><path class="a" d="M243.05,482.69c1.8,5.1,4.65,11.55,9.6,11.55v2.1H226v-2.1c4.65,0,8-3.6,6.45-9.15l-5.1-16H181.85l-4.8,14.4c-2.55,7.5.15,10.8,5.7,10.8v2.1H162.2v-2.1c4.8,0,7.8-6.9,9.6-12l30.45-85.65c-.75-2.25-2.25-3.44-2.85-3.44v-1.8H206c5.1,0,5.55,2.55,6.6,5.24Zm-17.4-17.85-19.5-57.9c-.6-1.95-2.4-1.8-3-.15l-19.65,58Z" transform="translate(-82.7 -316.65)"/><path class="a" d="M299.45,391.35c27.45,0,43.5,18.59,43.5,37.19,0,41.25-38.55,67.8-75.6,67.8H263v-2.1c4.95,0,7.35-3.6,7.35-8.25V406c0-4.65-2.4-12.6-7.35-12.6v-2.09ZM331,429.14c0-17.7-11.25-32.39-32.25-32.39H288.05c-4.65,0-7.2,2.54-7.2,7.19v80.55c0,4.35,2.4,4.8,4.8,3.9C303.2,482.39,331,465,331,429.14Z" transform="translate(-82.7 -316.65)"/><path class="a" d="M428,391.35v2.09c-4.95,0-8.25,4.65-14.55,13.35L394,435.74v45.15c0,4.65,2.25,13.35,7.2,13.35v2.1h-24.9v-2.1c4.8,0,7.2-8.7,7.2-13.35V441.14L362,406.79c-4.5-7.8-7.2-13.35-12-13.35v-2.09h26.85v2.09c-4.5,0-7.2,3.6-3,10.65l17.7,27.9,17.25-25.2c5.4-8,5.1-13.35-.15-13.35v-2.09Z" transform="translate(-82.7 -316.65)"/><path class="a" d="M471.8,435c2.4,4.05,38.85,60.3,60.15,60.3v2.1h-6.3c-25.8,0-32.25-14.25-61-54.45l-5,4.65v33.3c0,4.8,2.55,13.35,7.2,13.35v2.1H441.8v-2.1c4.95,0,7.35-8.55,7.35-13.35V406.94c0-4.8-2.4-13.5-7.35-13.5v-2.09h25.05v2.09c-4.65,0-7.2,8.7-7.2,13.5v35.4l28.8-35.4c6.6-7.65,9.3-13.5,4.35-13.5v-2.09h22.65v2.09c-6.45,0-9.6,3.31-18.6,13.5Z" transform="translate(-82.7 -316.65)"/><path class="a" d="M649.1,474v22.35H582.5v-2.1c5,0,7.35-8.55,7.35-13.35V406.94c0-4.8-2.4-13.34-7.35-13.34v-2.25h25v2.25c-4.65,0-7.2,8.54-7.2,13.34v70.95c0,9.45,5.1,14.55,19,14.55,27.15,0,27.15-11.7,27.15-18.45Z" transform="translate(-82.7 -316.65)"/><path class="a" d="M733.55,474v22.35H667v-2.1c4.95,0,7.35-8.55,7.35-13.35V406.94c0-4.8-2.4-13.34-7.35-13.34v-2.25h25v2.25c-4.65,0-7.2,8.54-7.2,13.34v70.95c0,9.45,5.1,14.55,19.05,14.55C731,492.44,731,480.74,731,474Z" transform="translate(-82.7 -316.65)"/><path class="a" d="M766.85,412.94v29.4c14.25,0,29.4-1.2,29.4-8.7h2.09V454h-2.09c0-7.8-15.15-8.55-29.4-8.55v31.2c0,11.7,3.6,16.05,14.55,16.05,21.89,0,32.09-12.3,32.09-20.25h2.1V493a3,3,0,0,1-3.15,3.3H749v-2.1c5,0,7.35-7.8,7.35-12.6V406.19c0-4.8-2.4-12.75-7.35-12.75v-2.09h63.44c1.95,0,3.15-.15,3.15,1.94v22h-2.1c0-8.7-10-20.4-32.09-20.4C770,394.94,766.85,401.09,766.85,412.94Z" transform="translate(-82.7 -316.65)"/><path class="a" d="M923.14,494.39v2.1h-3.45c-25.35,0-35.55-9.3-50.24-42.45-6,3.6-16.35,9-19.05,9.9v16.95c0,4.8,2.55,13.35,7.2,13.35v2.1H832.55v-2.1c5,0,7.35-8.55,7.35-13.35V406.94c0-4.8-2.4-13.5-7.35-13.5v-2.09h40.79c15.3,0,27.15,8.69,27.15,23.69,0,10-10.35,26.1-20.54,32.4C887.44,467.09,902,494.39,923.14,494.39ZM850.4,458.84c16.35-7.35,38.24-24.9,38.24-43.95,0-8.4-6.14-18.14-19.64-18.14h-9.9a9.06,9.06,0,0,0-8.7,9Z" transform="translate(-82.7 -316.65)"/><path class="a" d="M995.15,468.74c0,15.6-13.8,30-38.4,30-15.9,0-30.45-12.75-30.45-24.45,0-13.5,10.8-16.8,10.8-16.8-5.85,12,0,36.45,23.1,36.45,15.15,0,24.3-11.25,24.3-20.4,0-23.7-52.2-27.75-52.2-58.5,0-16.05,11.4-24.75,29.25-24.75,24.75,0,35.7,17.25,27.75,25.95-3,3.3-7.8,0-7.8,0,0-3.45-4.35-21.74-20-21.74-10.2,0-20.1,6.14-20.1,17.84C941.45,434.09,995.15,446.09,995.15,468.74Z" transform="translate(-82.7 -316.65)"/><path class="b" d="M576,373.5a7.7,7.7,0,0,0-7.7-7.7h-4.75c-4.91-.07-7.29-8.71-7.29-13.49V332.25c0-6.75,2.55-13.5,7.35-13.5v-2.1H539v2.1c5,0,7.35,8.7,7.35,13.5v20.06c0,6.71-2.52,13.42-7.28,13.49H531.7a7.7,7.7,0,0,0-7.7,7.7h15.7c4.61.57,6.85,8.81,6.85,13.44V558.5a16.58,16.58,0,0,0,.68,4.69L551,576h1l3.77-12.81a16.58,16.58,0,0,0,.68-4.69V386.94c0-6.44,2.33-12.88,6.73-13.44Z" transform="translate(-82.7 -316.65)"/></svg>