<svg xmlns="http://www.w3.org/2000/svg" viewBox="0 0 1385 634.14"><defs><style>.a,.c{fill:#555;}.b{fill:#e26161;}.c{font-size:125px;font-family:Montserrat-Medium, Montserrat;font-weight:500;letter-spacing:0.05em;}.d{letter-spacing:0.04em;}</style></defs><title>logo-horizontal</title><path class="a" d="M1703,494s-11,43-53,66c0,0-19-40-6-131,0,0,5-23-28-6,0,0,2,98,21,164,0,0,3,7,13,0s56-48,66-89C1716,498,1712,484,1703,494Z" transform="translate(-331 -239.91)"/><path class="b" d="M1706,289c-18-30-50,12-50,12s45-84,2-55-31,132-31,132C1660,334,1724,319,1706,289Z" transform="translate(-331 -239.91)"/><path class="a" d="M1592,536l-79.32-36.76C1554.31,450.76,1603,396,1603,396l-23-3s-56.43,66.64-101.93,114.57c-1.78-87.3-2.56-178.73-.07-238.57l-26,10s4,118.35,7.66,247.69c-11.34,11.57-20,19.84-23.66,22.31-4.24,2.83-9-10-12-40s-7-42-7-42l-16,8s-13,65-61,94,8-135,61-104c0,0,11-5,11-13,0-5.27-6.51-17-22.08-15.61,0,0-.48-.23-2.72.37-5.57,1-12.16,3.6-19.89,8.54-13.81,6.93-36,19.16-71.31,40.7-6.81,4.15-13.54,8.7-20.16,13.58A1011.68,1011.68,0,0,0,1211.5,269.5l-25,26s57.56,77,76.63,213.92q-7,5.67-13.77,11.72c-10.82,8.46-61.19,50.44-114.68,137.5l-.09.15h0c-9.67,15.75-19.44,33-29.09,51.71-70,136,31,194,111,148,55.13-31.7,85.09-170.26,61.73-342.35a485.7,485.7,0,0,1,59.12-41.27c-30.22,42.77-50.92,114.3-12.35,115.12,47,1,75-69,75-69s3-1,4,3,6,43,6,43,7,24,30,10c4-2.41,11.22-9.31,20.52-19.06,2,74.59,3.79,150,4.48,206.06,0,0,0,8,5,7s15-7,15-19c0-6.43-3.73-103.22-6.27-213.86,6.51-7.26,13.45-15.17,20.59-23.4,23.48,10.53,89.4,39.8,101.68,42.26C1616,560,1592,536,1592,536ZM1147.5,858.5c-67.91-4.38-47.84-121.27,18.17-223,24.22-32.78,57.73-72.44,99.66-108.6q2.16,19.54,3.17,40.56C1276.5,740.5,1240.5,864.5,1147.5,858.5Z" transform="translate(-331 -239.91)"/><text class="c" transform="translate(7.69 335.84)">DESIGN <tspan class="d" x="578.74" y="0">B</tspan><tspan x="677.74" y="0">Y</tspan></text></svg>