<svg xmlns="http://www.w3.org/2000/svg" viewBox="0 0 1364.18 634.14"><defs><style>.a{fill:#555;}.b{fill:#e26161;}</style></defs><title>logo-horizontal</title><path class="a" d="M1703,494s-11,43-53,66c0,0-19-40-6-131,0,0,5-23-28-6,0,0,2,98,21,164,0,0,3,7,13,0s56-48,66-89C1716,498,1712,484,1703,494Z" transform="translate(-351.82 -239.91)"/><path class="b" d="M1706,289c-18-30-50,12-50,12s45-84,2-55-31,132-31,132C1660,334,1724,319,1706,289Z" transform="translate(-351.82 -239.91)"/><path class="a" d="M1592,536l-79.32-36.76C1554.31,450.76,1603,396,1603,396l-23-3s-56.43,66.64-101.93,114.57c-1.78-87.3-2.56-178.73-.07-238.57l-26,10s4,118.35,7.66,247.69c-11.34,11.57-20,19.84-23.66,22.31-4.24,2.83-9-10-12-40s-7-42-7-42l-16,8s-13,65-61,94,8-135,61-104c0,0,11-5,11-13,0-5.27-6.51-17-22.08-15.61,0,0-.48-.23-2.72.37-5.57,1-12.16,3.6-19.89,8.54-13.81,6.93-36,19.16-71.31,40.7-6.81,4.15-13.54,8.7-20.16,13.58A1011.68,1011.68,0,0,0,1211.5,269.5l-25,26s57.56,77,76.63,213.92q-7,5.67-13.77,11.72c-10.82,8.46-61.19,50.44-114.68,137.5l-.09.15h0c-9.67,15.75-19.44,33-29.09,51.71-70,136,31,194,111,148,55.13-31.7,85.09-170.26,61.73-342.35a485.7,485.7,0,0,1,59.12-41.27c-30.22,42.77-50.92,114.3-12.35,115.12,47,1,75-69,75-69s3-1,4,3,6,43,6,43,7,24,30,10c4-2.41,11.22-9.31,20.52-19.06,2,74.59,3.79,150,4.48,206.06,0,0,0,8,5,7s15-7,15-19c0-6.43-3.73-103.22-6.27-213.86,6.51-7.26,13.45-15.17,20.59-23.4,23.48,10.53,89.4,39.8,101.68,42.26C1616,560,1592,536,1592,536ZM1147.5,858.5c-67.91-4.38-47.84-121.27,18.17-223,24.22-32.78,57.73-72.44,99.66-108.6q2.16,19.54,3.17,40.56C1276.5,740.5,1240.5,864.5,1147.5,858.5Z" transform="translate(-351.82 -239.91)"/><path class="a" d="M351.82,488.25h36.87c28.13,0,47.25,17.75,47.25,43.75s-19.12,43.75-47.25,43.75H351.82Zm36.12,76.62c21.63,0,35.5-13.25,35.5-32.87s-13.87-32.88-35.5-32.88H364.32v65.75Z" transform="translate(-351.82 -239.91)"/><path class="a" d="M524.82,564.87v10.88h-63.5v-87.5h61.75v10.87H473.82V526h43.87v10.62H473.82v28.25Z" transform="translate(-351.82 -239.91)"/><path class="a" d="M543.32,565.75l4.62-9.75c6.5,5.87,17.63,10.12,28.88,10.12,15.12,0,21.62-5.87,21.62-13.5,0-21.37-53-7.87-53-40.37,0-13.5,10.5-25,33.5-25,10.25,0,20.88,2.75,28.13,7.75l-4.13,10a45.14,45.14,0,0,0-24-7.13c-14.87,0-21.25,6.25-21.25,13.88,0,21.37,53,8,53,40.12,0,13.38-10.75,24.88-33.87,24.88C563.44,576.75,550.32,572.25,543.32,565.75Z" transform="translate(-351.82 -239.91)"/><path class="a" d="M635.19,488.25h12.5v87.5h-12.5Z" transform="translate(-351.82 -239.91)"/><path class="a" d="M740.81,531.5h12v34.12c-8.75,7.38-20.87,11.13-33.12,11.13-26.88,0-46.63-18.88-46.63-44.75s19.75-44.75,46.88-44.75c13.87,0,25.62,4.62,33.62,13.5l-7.75,7.75a34.69,34.69,0,0,0-25.37-10.13c-20.25,0-34.88,14.13-34.88,33.63,0,19.25,14.63,33.62,34.75,33.62a37,37,0,0,0,20.5-5.62Z" transform="translate(-351.82 -239.91)"/><path class="a" d="M858.19,488.25v87.5H847.94l-52.5-65.25v65.25h-12.5v-87.5h10.25l52.5,65.25V488.25Z" transform="translate(-351.82 -239.91)"/><path class="a" d="M1005.81,552.12c0,15-11.37,23.63-33.5,23.63H930.56v-87.5h39.25c20.13,0,31.38,8.5,31.38,22.62,0,9.5-4.88,16.13-11.75,19.5C999.31,533.12,1005.81,540.5,1005.81,552.12Zm-62.75-53.75v28h25.63c12.75,0,20-4.75,20-14s-7.25-14-20-14Zm50.13,52.75c0-10.12-7.5-14.62-21.38-14.62H943.06v29.12h28.75C985.69,565.62,993.19,561.25,993.19,551.12Z" transform="translate(-351.82 -239.91)"/><path class="a" d="M1063.06,545.5v30.25h-12.38v-30.5l-34.75-57h13.38l28,46.12,28.12-46.12h12.38Z" transform="translate(-351.82 -239.91)"/></svg>