<svg xmlns="http://www.w3.org/2000/svg" viewBox="0 0 1666.46 1211.18"><defs><style>.cls-1{fill:#f0b1bd;}.cls-2{fill:#231f20;}</style></defs><title>100418 logo</title><g id="Layer_1" data-name="Layer 1"><path class="cls-1" d="M2861.53,894l-4.13-22.73s-7.24-52-9.31-74.41-2.1-78.91,35.45-88.21,33.76,33.59,33.76,33.59,32.07-43,60.15-27c45.44,25.93-24,93.17-56.69,116.78-52.68,38-59.23,62-59.23,62" transform="translate(-1325.96 -521.62)"/><path class="cls-2" d="M2254.19,1376.35q-12.6-6.74-11.2-26.69a106.57,106.57,0,0,1,2.92-18.15l36.34-145.68q29.27-115.8,39.6-150.88t17.24-56.6l-4.32-3.56q-28.26,12.57-49,18.38-48.32-15.43-86.59-14.1a224.28,224.28,0,0,0-43.38,5.69l0,0c-50.65,11.18-123.7,36.89-205.7,73.29l45.67-219.1q5.68-27.87,10.87-51.49t9.89-43.54q3.9-14.24,14.54-18l54.3-22.79,3.37-24.4q-52.17,4.08-100.43,5.77-49.51,1.72-104.27,1.38l-4.61,24.44,48.8,20.32q8.82,4.21,6.14,19-3.39,18.76-8.13,42.07T1915.75,844l-53.7,255.66c-206.83,103.54-438.16,260.44-511,418.36-87.57,189.73,74.34,216.24,181.42,214.74l4.08-.07h0a334.06,334.06,0,0,0,42.16-2.28,328.88,328.88,0,0,0,36.9-6.45l.21,0a280.37,280.37,0,0,0,34.93-10.52c6-2.27,9.22-3.81,9.22-3.81a368,368,0,0,0,57.32-28.89c1-.63,2-1.25,3-1.88q6.62-4.17,12.85-8.58l2.9-2,.49-.36.52-.38q8.85-6.47,16.91-13.41a284.22,284.22,0,0,0,46.54-51.32,331.94,331.94,0,0,0,35.24-64.76q15-36.09,27.94-82t24.75-101.66l57.19-274.35c50-22.1,92.7-39.44,121.11-50.61a286.34,286.34,0,0,0-38.46,38.34q-71.12,85.11-79.58,206.2-4.74,67.76,22.85,112.37t80.85,42.77q12.06-.42,42.92-20.25t75.31-62.1q-1.12,10.23-1.45,14.86-2.12,30.16,11.14,45.43t37,14.45q25.79-.9,81.24-22.28L2301,1381Q2266.8,1383.09,2254.19,1376.35Zm-449.8-2.21q-12.57,60.87-26.12,109.33t-34.34,87.6a293.11,293.11,0,0,1-51.81,70.13q-31,31-79.35,57.54l0,.34c-5.89,2.52-150,63-206.81-28.08-52.28-83.83-15-252,183-396,79.76-58,178.82-111.46,268.7-154.63Zm374.73-66.68q-38.31,31.43-62.49,44.76t-33.74,13.68q-30,1-44-32.72t-10.56-83.4q6-86.29,53.47-159.24t108.59-75.07q29.11-1,58.13,17.41Z" transform="translate(-1325.96 -521.62)"/><path class="cls-2" d="M2749.17,970.5q-69.59,3.82-96.62,4.77-10,.35-25.35.42-33.73,60.88-175.91,195,35.86,68.64,60.91,126.08t39.93,105.53q12.93-.91,22.72-1.49t17.29-.83q23.71-.84,81-1.45l3.83-19.11q-29.84-6.83-40.34-16.64-10.5-10.27-24.16-40.35l-84-175.72,102.28-97.53q15.55-14.9,27.32-22.71a216.64,216.64,0,0,1,23.79-13.79,248.79,248.79,0,0,1,26.49-10.88q15.32-5.38,37.79-12.19Z" transform="translate(-1325.96 -521.62)"/><path class="cls-2" d="M2533.89,799.6q14-54.87,23.92-89.94l-2.93-5.45q-37.3,11-73.66,20.62t-72.67,18.28l-1.13,16.24,61.56,9.88-162.42,643,74-7.21,123.19-485.66Q2519.88,854.48,2533.89,799.6Z" transform="translate(-1325.96 -521.62)"/><path class="cls-2" d="M2881.42,967q-11.1-10.47-32.32-9.74-32,1.11-90.11,24.43l-2.48,17.68q39.52-1.38,48.74,3.39t8.33,17.29a61.8,61.8,0,0,1-1.77,10.48c-1,3.9-2,8.48-3.24,13.77l-68.84,272.24q-4.7,19.61-5.6,32.59-1.92,27.39,10.25,40.38t35.46,12.18q30-1.05,85.41-22.42l2.51-18.14q-32.87,1.15-46.19-4.17t-12-23.88a81.14,81.14,0,0,1,3.25-16.78l75.11-296.53a112.18,112.18,0,0,0,3-19.08Q2892.51,977.54,2881.42,967Z" transform="translate(-1325.96 -521.62)"/></g><g id="Layer_3" data-name="Layer 3"><path d="M1398.72,621.71v-99.4h32.34a50.34,50.34,0,0,1,20.58,3.92,41,41,0,0,1,14.63,10.65,45,45,0,0,1,8.75,15.75,61.73,61.73,0,0,1,2.94,19.25,60.47,60.47,0,0,1-3.29,20.5,44.63,44.63,0,0,1-9.38,15.68,41.44,41.44,0,0,1-14.77,10.08,50.73,50.73,0,0,1-19.46,3.57Zm74.48-49.83a55.9,55.9,0,0,0-2.8-18.07,41.29,41.29,0,0,0-8.12-14.27,36.16,36.16,0,0,0-13.23-9.38,45.62,45.62,0,0,0-18-3.37h-27.58v90.44h27.58a45.49,45.49,0,0,0,18.27-3.43,36.7,36.7,0,0,0,13.23-9.51,40.23,40.23,0,0,0,8-14.42A59,59,0,0,0,1473.2,571.88Z" transform="translate(-1325.96 -521.62)"/><path d="M1585.9,617.23v4.48h-65.66v-99.4h64.4v4.48H1525v41.87h52.22v4.47H1525v44.1Z" transform="translate(-1325.96 -521.62)"/><path d="M1683.62,537a29.9,29.9,0,0,0-11.9-8.47,44.16,44.16,0,0,0-15.4-2.45q-16,0-23.1,6t-7.14,16.09a18.41,18.41,0,0,0,1.75,8.47,15,15,0,0,0,5.46,5.82,35.1,35.1,0,0,0,9.45,4q5.73,1.62,13.72,3.29t14.7,3.65a43,43,0,0,1,11.2,5,21.46,21.46,0,0,1,7.14,7.5,22.24,22.24,0,0,1,2.52,11A23.36,23.36,0,0,1,1689.5,608a22.38,22.38,0,0,1-7.14,8,33.1,33.1,0,0,1-11.13,4.83,60,60,0,0,1-14.49,1.62,58.61,58.61,0,0,1-21.42-3.71,52.66,52.66,0,0,1-17.5-11.42l2.8-3.5a46.84,46.84,0,0,0,16,10.79,53.66,53.66,0,0,0,20.3,3.63q14,0,22-5.11t8-15.6a19.26,19.26,0,0,0-2-9,17,17,0,0,0-6-6.29,41.24,41.24,0,0,0-10-4.49,142.74,142.74,0,0,0-14.28-3.56q-8.13-1.68-14.42-3.5a39.27,39.27,0,0,1-10.57-4.62,18.72,18.72,0,0,1-6.44-6.87,21.45,21.45,0,0,1-2.17-10.21,26.14,26.14,0,0,1,2.52-11.7,23.67,23.67,0,0,1,7.07-8.54,33.1,33.1,0,0,1,11-5.25,53.12,53.12,0,0,1,14.42-1.81,46.41,46.41,0,0,1,16.87,2.8,37.4,37.4,0,0,1,13.23,9Z" transform="translate(-1325.96 -521.62)"/><path d="M1732.34,621.71V522.46h4.76v99.25Z" transform="translate(-1325.96 -521.62)"/><path d="M1860.3,605.47q-14.85,16.95-34.58,16.95a40.56,40.56,0,0,1-18.83-4.42,48.53,48.53,0,0,1-14.77-11.54,54.92,54.92,0,0,1-9.66-16.17A50.14,50.14,0,0,1,1779,572a54.07,54.07,0,0,1,3.36-18.89A52.06,52.06,0,0,1,1791.7,537a46.24,46.24,0,0,1,14.35-11.2,40,40,0,0,1,18.27-4.19,52.83,52.83,0,0,1,13.58,1.6,39.32,39.32,0,0,1,10.64,4.49,33.46,33.46,0,0,1,8,6.85,44.49,44.49,0,0,1,5.74,8.75l-4.06,2.11q-5.46-10.23-14.14-14.71a42.52,42.52,0,0,0-19.74-4.48,35.71,35.71,0,0,0-16.94,4,41,41,0,0,0-12.81,10.44,46.82,46.82,0,0,0-8,14.63,51.25,51.25,0,0,0-2.8,16.72,46.4,46.4,0,0,0,3.29,17.37,48.19,48.19,0,0,0,9,14.55A43.51,43.51,0,0,0,1809.34,614a36.84,36.84,0,0,0,16.52,3.78,39,39,0,0,0,18-4.33q8.46-4.35,16.45-13.73V578.17h-23V574h27.44v47.74h-4.48Z" transform="translate(-1325.96 -521.62)"/><path d="M1913.22,531.55v90.16h-4.76v-99.4h3.64l73.08,91.7V522.46h4.76v99.25h-4.76Z" transform="translate(-1325.96 -521.62)"/><path d="M2168.44,596a24.94,24.94,0,0,1-2,10,25.87,25.87,0,0,1-13.72,13.72,24.85,24.85,0,0,1-10,2h-46.2v-99.4h45.08a19.66,19.66,0,0,1,9.38,2.24,23.4,23.4,0,0,1,7.14,5.82,26.75,26.75,0,0,1,4.55,8.11,27.49,27.49,0,0,1,1.61,9.18,26.1,26.1,0,0,1-3.85,13.85,23,23,0,0,1-10.43,9.24,25.88,25.88,0,0,1,7.63,3.71,26.36,26.36,0,0,1,5.88,5.81,25.36,25.36,0,0,1,3.71,7.36A27.47,27.47,0,0,1,2168.44,596Zm-67.2-69.17v42.56h38.5a17.21,17.21,0,0,0,7.91-1.81,21.23,21.23,0,0,0,6.23-4.83,22.7,22.7,0,0,0,4.13-6.79,21.51,21.51,0,0,0,1.47-7.84,23.48,23.48,0,0,0-1.4-8.06,22.07,22.07,0,0,0-3.92-6.79,19.48,19.48,0,0,0-5.95-4.69,16.64,16.64,0,0,0-7.63-1.75Zm62.3,68.75a23.53,23.53,0,0,0-1.47-8.2,22,22,0,0,0-4.13-7,21,21,0,0,0-6.3-4.83,17.65,17.65,0,0,0-8-1.81h-42.42v43.53h41.44a19,19,0,0,0,8.19-1.81,21.18,21.18,0,0,0,6.65-4.91,23.85,23.85,0,0,0,4.41-7A20.86,20.86,0,0,0,2163.54,595.54Z" transform="translate(-1325.96 -521.62)"/><path d="M2199.66,522.31l36.67,56.42,36.83-56.42h5.46l-39.91,61.32v38.08H2234V583.35l-39.63-61Z" transform="translate(-1325.96 -521.62)"/></g></svg>