<svg xmlns="http://www.w3.org/2000/svg" viewBox="0 0 1352.99 220.8"><defs><style>.a{fill:#fff;}</style></defs><polygon class="a" points="136.5 10.5 130.5 3.9 9 117 9 7.2 0 7.2 0 217.2 9 217.2 9 129.3 26.1 113.4 130.2 220.2 136.8 214.2 32.4 107.1 136.5 10.5"/><rect class="a" x="270.3" y="7.2" width="9" height="210"/><path class="a" d="M883.07,1053c-24-8.4-53.4-21.6-53.4-46.8,0-28.5,23.1-48.6,53.4-48.6,21.6,0,40.8,9.6,49.8,30l8.4-3.6c-10.2-24-33-35.4-58.2-35.4-35.1,0-62.4,23.7-62.4,57.6,0,30.9,32.4,45.9,59.4,55.2,24,8.4,53.4,21.6,53.4,46.8,0,28.5-23.1,48.6-53.4,48.6-21.6,0-40.8-9.6-49.8-30l-8.4,3.6c10.2,24,32.7,35.4,58.2,35.4,35.1,0,62.4-23.7,62.4-57.6C942.47,1077.28,910.07,1062.28,883.07,1053Z" transform="translate(-406.37 -944.98)"/><polygon class="a" points="671.09 0 671.09 217.2 680.09 217.2 680.09 35.7 748.49 164.1 816.89 35.7 816.89 217.2 825.89 217.2 825.89 0 748.49 144.9 671.09 0"/><polygon class="a" points="1084.19 208.2 974.39 208.2 974.39 104.4 1064.39 104.4 1064.39 95.4 974.39 95.4 974.39 16.2 1084.19 16.2 1084.19 7.2 965.39 7.2 965.39 217.2 1084.19 217.2 1084.19 208.2"/><polygon class="a" points="1213.18 7.2 1213.18 16.2 1278.58 16.2 1278.58 217.2 1287.59 217.2 1287.59 16.2 1352.99 16.2 1352.99 7.2 1213.18 7.2"/></svg>