<svg xmlns="http://www.w3.org/2000/svg" viewBox="0 0 2422.24 1382.73"><defs><style>.cls-1{fill:#fff;}</style></defs><title>logo-website</title><g id="Layer_1" data-name="Layer 1"><polygon class="cls-1" points="2042 380.04 2039 395.04 2291.37 921.54 2333.45 921.54 2067 364.04 2042 380.04"/><rect class="cls-1" x="2354.33" y="335.04" width="34.35" height="586.5"/><path class="cls-1" d="M3666.24,646.64c-3.66,3.1-19.81,16.63-26.55,20a10.26,10.26,0,0,1-3.89,1.37l8.2-7c-3.2,1.49-6.39,4.92-8.61,5.6a20.6,20.6,0,0,1,2.89-4c2.48-2.84,30.45-35.54,12.72-48.64s-45,2-123,100c0,0-25.58,32.8-59.75,70.24L3311,948.15l.24-.76-29.53,31.29-10,10.46V624.3h-34.35v401.36c-29.56,31.27-60.34,63.8-91.58,96.8L3065,624h-51l-124.46,768.8-49.86,52.56V624h-34.35v857.58C2762.23,1527,2727,1564.19,2704,1588.5c-75.46,79.8-129.67,171.26-152.34,247a95.25,95.25,0,0,1,3.87-17.48,68.43,68.43,0,0,0-6.64,14c4-19,18.61-51,18.61-51-58.5,105-37.23,159-37.23,159-1.87-23.87,5.44-38.36,10-44.89C2536,1961.33,2568,2002.93,2647,1990.5c202.19-31.81,192-276,192-276v-183h.68v-28.42c4.53-8.94,19-27.81,40.74-54L2867,1532h32l21.49-129.83c52.22-60,124.17-139.49,200.53-222.52L3178,1531h34l-62-382.76c29.06-31.49,58.47-63.19,87.41-94.28V1531.5h34.35V1017.11Q3285,1002.91,3298,989l145-166s-67,75-56,57c4.86-8,37.58-44.54,72.63-83C3492,769.43,3503,757,3519,748l24-14s32.8-17.12,64-38c0,0-8.09,9.07-15,14,0,0,24.75-10.37,40-21s35.52-27.31,17.27-20.66C3649.27,668.34,3658.86,653.14,3666.24,646.64ZM2727.11,1944.05C2647,1990.5,2537,1984.5,2606,1810.5s199-279,199-279v186S2807.23,1897.61,2727.11,1944.05Zm201.8-592.76L3040,680l76.73,473.15C3053.06,1220.37,2988.4,1288.56,2928.91,1351.29Z" transform="translate(-1244 -609.96)"/></g><g id="Layer_6" data-name="Layer 6"><path class="cls-1" d="M2448.4,765.15q-7.91-6.45-23.7-6.45h-31v49.9h31a47.54,47.54,0,0,0,14.3-1.9,26.61,26.61,0,0,0,9.85-5.35,20.79,20.79,0,0,0,5.65-8.2,29.28,29.28,0,0,0,1.8-10.45Q2456.3,771.6,2448.4,765.15Z" transform="translate(-1244 -609.96)"/><path class="cls-1" d="M2538.28,709.08,2521,680.7h17a6.24,6.24,0,0,1,4.1,1.25,11.28,11.28,0,0,1,2.6,3.25L2561,712.87l23.38,39.35L2651.18,633H1244V876H2515l59.81-106.72ZM1431.4,781.7a65,65,0,0,1-14.4,22.6,64,64,0,0,1-22.35,14.55A78,78,0,0,1,1365.8,824h-53.5V680.7h53.5a78,78,0,0,1,28.85,5.15,63.71,63.71,0,0,1,22.35,14.6,65.5,65.5,0,0,1,14.4,22.65,86.72,86.72,0,0,1,0,58.6ZM1592.7,824h-88.3V680.7h88.3v15.8h-68.9v47.6h55.8v15.2h-55.8v48.9h69Zm145.2-25.85a40.67,40.67,0,0,1-9.35,14.35,43.61,43.61,0,0,1-15.1,9.6,55.62,55.62,0,0,1-20.35,3.5,62,62,0,0,1-25.4-5.05,59.7,59.7,0,0,1-19.5-13.65l5.6-9.2a7.32,7.32,0,0,1,2-1.85,4.59,4.59,0,0,1,2.55-.75,5.66,5.66,0,0,1,3,1q1.65,1.05,3.75,2.65c1.4,1.07,3,2.23,4.8,3.5a39.66,39.66,0,0,0,6.15,3.5,41.47,41.47,0,0,0,7.85,2.65,42.72,42.72,0,0,0,9.9,1,36.86,36.86,0,0,0,12.3-1.9,26.17,26.17,0,0,0,9.15-5.35,23.14,23.14,0,0,0,5.75-8.25,27.64,27.64,0,0,0,2-10.7,18,18,0,0,0-3-10.65,24.49,24.49,0,0,0-7.75-6.95,53.73,53.73,0,0,0-11-4.75q-6.2-2-12.6-4a133.88,133.88,0,0,1-12.6-4.75,40.68,40.68,0,0,1-11-7,32.24,32.24,0,0,1-7.75-10.75q-3-6.45-3-16a38,38,0,0,1,11.55-27.3,42,42,0,0,1,13.9-8.8,50.75,50.75,0,0,1,19-3.3,60.34,60.34,0,0,1,21.85,3.8,51.53,51.53,0,0,1,17.35,11l-4.7,9.2a7.36,7.36,0,0,1-2,2.25,4.27,4.27,0,0,1-2.55.75,7.16,7.16,0,0,1-4-1.7q-2.29-1.7-5.75-3.75a45.9,45.9,0,0,0-8.3-3.75,35.79,35.79,0,0,0-11.75-1.7,34.23,34.23,0,0,0-11.45,1.75,24.55,24.55,0,0,0-8.3,4.75,19.5,19.5,0,0,0-5.05,7,22.45,22.45,0,0,0-1.7,8.75,16.14,16.14,0,0,0,2.95,10,25.58,25.58,0,0,0,7.8,6.75,59.66,59.66,0,0,0,11,4.85q6.15,2.06,12.6,4.25t12.6,5a44.16,44.16,0,0,1,11,7,31.74,31.74,0,0,1,7.8,10.3q3,6.11,2.95,15A48.43,48.43,0,0,1,1737.9,798.15ZM1827.8,824h-19.4V680.7h19.4Zm193-13.9a80.49,80.49,0,0,1-23,11.65,89.11,89.11,0,0,1-26.85,3.85,86.16,86.16,0,0,1-31.2-5.35,68.75,68.75,0,0,1-23.75-15,65.31,65.31,0,0,1-15.15-23.15,80.46,80.46,0,0,1-5.3-29.7,83.15,83.15,0,0,1,5.15-29.9,66,66,0,0,1,14.65-23.15,65,65,0,0,1,23.1-15,83.16,83.16,0,0,1,30.4-5.3,94.17,94.17,0,0,1,15.8,1.25,72.37,72.37,0,0,1,13.5,3.6,64.5,64.5,0,0,1,11.5,5.7,70.71,70.71,0,0,1,9.9,7.55L2014,706a5.33,5.33,0,0,1-7.9,1.6c-1.6-.93-3.44-2.07-5.5-3.4a48.41,48.41,0,0,0-7.55-3.85,61.57,61.57,0,0,0-10.5-3.15,69,69,0,0,0-14.35-1.3,58.15,58.15,0,0,0-21.9,4,46.22,46.22,0,0,0-16.7,11.3A49.88,49.88,0,0,0,1919,729a69.85,69.85,0,0,0-3.7,23.45,70.66,70.66,0,0,0,3.85,24.15,50.47,50.47,0,0,0,11,18.1A46.79,46.79,0,0,0,1947.5,806a70,70,0,0,0,40.65,1.65,77,77,0,0,0,15.15-6.25V769.9H1981a4.23,4.23,0,0,1-3-1.1,3.57,3.57,0,0,1-1.15-2.7v-11h44ZM2206.6,824h-9.7a8.35,8.35,0,0,1-3.85-.8,9.57,9.57,0,0,1-3.05-2.7l-82.9-108c.13,1.67.23,3.3.3,4.9s.1,3.1.1,4.5V824h-17V680.7h10a13.72,13.72,0,0,1,2.2.15,5.77,5.77,0,0,1,1.6.5,6.3,6.3,0,0,1,1.4,1,16.13,16.13,0,0,1,1.5,1.65l82.9,107.9c-.14-1.73-.25-3.42-.35-5s-.15-3.18-.15-4.65V680.7h17Zm265.45-24.2a35.64,35.64,0,0,1-9.8,12.9,45.78,45.78,0,0,1-15.85,8.35,71.33,71.33,0,0,1-21.4,3h-50.6V680.7h45.7a87.53,87.53,0,0,1,22.75,2.6,44.06,44.06,0,0,1,15.7,7.4,28.86,28.86,0,0,1,9,11.75,40.34,40.34,0,0,1,2.9,15.65,31.3,31.3,0,0,1-1.65,10.15,30.49,30.49,0,0,1-4.95,9,35.37,35.37,0,0,1-8.35,7.55,45.94,45.94,0,0,1-11.85,5.45q15.8,3,23.75,11.25t8,21.65A40.29,40.29,0,0,1,2472.05,799.8Z" transform="translate(-1244 -609.96)"/><path class="cls-1" d="M2433.55,743.1a28.85,28.85,0,0,0,10-5,19.61,19.61,0,0,0,5.85-7.75,25.68,25.68,0,0,0,1.9-10q0-12.71-7.6-18.55T2420.1,696h-26.4v48.9h25.6A50.29,50.29,0,0,0,2433.55,743.1Z" transform="translate(-1244 -609.96)"/><path class="cls-1" d="M1402.8,711.2a43.44,43.44,0,0,0-16-11,55.66,55.66,0,0,0-21-3.8h-34.1V808.3h34.1a55.66,55.66,0,0,0,21-3.8,43.68,43.68,0,0,0,16-11A49.28,49.28,0,0,0,1413,776a79.16,79.16,0,0,0,0-47.2A49.77,49.77,0,0,0,1402.8,711.2Z" transform="translate(-1244 -609.96)"/></g></svg>